<?xml version="1.0" encoding="UTF-8" standalone="no"?>
<svg
   xmlns:dc="http://purl.org/dc/elements/1.1/"
   xmlns:cc="http://creativecommons.org/ns#"
   xmlns:rdf="http://www.w3.org/1999/02/22-rdf-syntax-ns#"
   xmlns:svg="http://www.w3.org/2000/svg"
   xmlns="http://www.w3.org/2000/svg"
   xmlns:sodipodi="http://sodipodi.sourceforge.net/DTD/sodipodi-0.dtd"
   xmlns:inkscape="http://www.inkscape.org/namespaces/inkscape"
   version="1.1"
   width="630"
   height="630"
   viewBox="0 0 630 630"
   id="svg3156"
   inkscape:version="0.48.3.1 r9886"
   sodipodi:docname="logo.svg">
  <metadata
     id="metadata3164">
    <rdf:RDF>
      <cc:Work
         rdf:about="">
        <dc:format>image/svg+xml</dc:format>
        <dc:type
           rdf:resource="http://purl.org/dc/dcmitype/StillImage" />
        <dc:title></dc:title>
      </cc:Work>
    </rdf:RDF>
  </metadata>
  <defs
     id="defs3162" />
  <sodipodi:namedview
     pagecolor="#ffffff"
     bordercolor="#666666"
     borderopacity="1"
     objecttolerance="10"
     gridtolerance="10"
     guidetolerance="10"
     inkscape:pageopacity="0"
     inkscape:pageshadow="2"
     inkscape:window-width="1366"
     inkscape:window-height="744"
     id="namedview3160"
     showgrid="false"
     fit-margin-top="0"
     fit-margin-left="0"
     fit-margin-right="0"
     fit-margin-bottom="0"
     inkscape:zoom="0.95873016"
     inkscape:cx="301.04726"
     inkscape:cy="314.36085"
     inkscape:window-x="0"
     inkscape:window-y="24"
     inkscape:window-maximized="1"
     inkscape:current-layer="svg3156" />
  <g
     id="g3973">
    <path
       style="fill:#f8db50"
       inkscape:connector-curvature="0"
       id="path3158"
       d="m 176.37683,126.95122 c -3.76715,1.50146 -11.73761,0.3161 -25.10102,-5.41312 C 128.43508,112.13429 113.88205,100.28075 97.861821,89.691582 82.079516,79.141921 63.838668,68.315671 55.154431,56.857243 47.937408,46.465631 67.764421,41.408119 93.261954,48.125132 c 33.230086,8.692605 52.462296,30.463612 67.094636,42.712279 5.55156,4.464846 27.51991,31.925579 15.98057,36.113809 z M 431.9867,481.09577 c 0.91206,0 24.5855,31.25384 29.62158,39.70936 6.50327,10.74723 30.77153,37.18064 16.65469,48.48103 -9.35837,7.3492 -17.20986,-3.27948 -23.59415,-9.60137 -6.82049,-6.75651 -40.01093,-77.71978 -22.68212,-78.58902 z m -244.66536,0.86924 c 0.71375,0.23708 1.34823,0.6322 1.90339,0.98781 16.37713,8.85065 -18.59775,67.13059 -22.36488,80.20902 -4.95675,16.71348 -28.9871,34.0987 -40.40747,10.19403 -9.55661,-20.30906 50.91579,-93.24792 60.8293,-91.35136 z M 149.49137,164.9616 h 0 c 45.1263,5.45264 56.18979,-23.35148 66.89636,-51.87902 6.58257,-17.108624 22.12696,-56.4624 50.16235,-33.861644 14.47372,11.576967 13.08585,31.530444 26.7665,44.055704 16.37711,14.69839 47.74344,19.00518 69.51352,10.82623 31.8025,-12.05111 36.20411,-15.96278 40.52641,-42.27766 3.09301,-18.175439 -0.23792,-40.460115 15.14782,-55.237541 9.19974,-8.929663 24.14933,-12.880844 33.62663,-2.054611 10.94452,12.327702 -1.94305,33.110912 -8.88251,44.411307 -12.7686,21.178335 -41.67638,29.396805 -2.02234,45.596645 24.58548,9.95698 78.83223,-4.9785 73.8358,28.52754 -2.61715,17.22716 -17.88395,32.95287 -17.3288,50.53564 0.47584,16.19984 16.97193,30.30557 36.00586,23.50953 17.20985,-6.20335 25.85442,-29.15973 45.00733,-32.47872 16.41676,-2.72632 20.14424,12.60427 17.76499,25.24807 -2.06199,11.85353 -6.34465,21.25735 -16.61504,28.60656 -19.62874,14.0267 -26.44923,36.23234 -18.55807,57.52923 3.29127,8.89013 -1.07067,22.56123 -11.1428,20.94125 -23.59415,-3.87216 -33.74557,14.93547 -7.93079,20.74372 39.29714,8.92966 51.03473,-12.24867 81.25111,17.06909 5.3533,23.82563 -3.72748,39.47232 -27.99574,33.82214 -27.7975,-6.47994 -20.22356,-7.11215 -43.34185,-19.59786 -29.38366,-15.92329 -70.18767,-18.84716 -102.78328,-7.82336 -12.88758,4.42534 -26.64751,11.30039 -26.09234,24.29979 0.79306,17.14812 9.19973,38.48451 6.93944,55.15852 -2.37923,18.0569 -12.88757,13.43403 -24.82341,-2.72633 -13.32375,-18.17544 -5.47227,-48.48101 -48.41759,-28.60657 -60.74998,27.93486 -40.80398,118.02184 -29.62155,164.32969 1.50685,9.60138 -0.11904,24.18124 -7.17738,32.28118 -11.81691,13.75012 -40.01091,12.0511 -41.67638,-6.12434 -1.38789,-13.47353 6.62222,-27.02608 9.00145,-40.06498 2.97405,-16.08133 3.09302,-33.58505 0,-49.70588 -1.26892,-6.00581 -1.78443,-16.27888 -9.31871,-19.6769 -7.41529,-3.39802 -15.38575,3.319 -23.03898,0.86927 -6.97911,-2.17315 -6.82051,-7.27021 -6.82051,-12.88087 -0.23792,-12.13012 4.3223,-23.70708 5.35332,-35.7582 0.91202,-9.71992 5.23433,-34.7309 -9.67558,-39.55133 -33.19044,-10.54966 -46.67281,16.83203 -80.85459,27.53973 -25.06135,7.90239 -96.835149,5.018 -61.62237,-36.50892 12.64963,-14.77744 71.61518,-58.3985 4.40161,-70.60764 -27.123369,-4.89948 -64.874015,24.22074 -89.578468,14.14522 -18.9546405,-7.62576 -11.1824387,-27.57924 1.348224,-36.70649 26.211329,-18.92614 69.870418,-4.50434 99.690254,-17.10861 10.27039,-4.30679 3.37059,-30.26607 -18.716702,-32.7553 -29.74052,-3.3585 -29.026765,-19.12373 -29.066411,-26.27537 -0.03961,-8.02093 23.67346,-23.11441 35.093823,-12.9599 11.14278,9.87798 27.91644,-4.38581 24.54584,-10.51013 C 121.85251,197.99349 110.67008,188.03652 95.40328,180.76635 63.838668,165.71234 68.755768,175.78786 39.015251,157.65192 21.92436,147.10226 1.5421848,119.91813 33.542993,112.76648 c 33.031805,-7.3492 27.678517,13.71061 51.153697,27.93487 19.35117,11.57696 42.70739,21.7315 64.83435,24.37879 z m 383.69244,-37.73379 c -2.93438,-0.59267 -3.17232,-5.09702 1.58617,-15.44913 7.61356,-17.38519 20.42183,-32.834315 31.20771,-48.006869 10.7859,-15.014489 21.37353,-31.372399 35.09383,-43.858127 12.60996,-11.0633093 24.10964,-5.768716 20.85802,10.786721 -4.20333,21.573471 -29.54226,46.544936 -42.90566,62.310157 -4.83781,5.847756 -37.3541,36.311378 -45.80043,34.177738 z m 25.33893,330.83255 c -2.4982,1.10632 -7.81184,0.23707 -16.734,-3.91169 -15.22715,-6.83553 -24.9424,-15.40958 -35.56967,-23.0749 -10.50831,-7.6653 -22.6821,-15.48862 -28.43195,-23.82563 -4.79814,-7.54675 8.40667,-11.18183 25.37857,-6.32188 22.16661,6.32188 34.97489,22.08711 44.72978,30.97727 3.68781,3.23996 18.35982,23.15394 10.66692,26.19635 z M 326.42769,46.386616 c -2.6965,-0.355605 -5.67055,-2.133645 -8.28771,-6.005804 -4.71883,-6.558963 -4.08435,-12.130126 -4.87746,-17.661785 -0.71375,-5.492147 -2.41888,-11.537452 0.75345,-15.8837606 3.17231,-3.8721559 15.58402,-1.3434023 23.23727,5.0180046 9.9928,8.337002 5.31362,17.148127 4.4016,22.837838 -0.23794,2.094133 -7.21704,12.841352 -15.22715,11.695507 z m -10.7066,244.696754 c -2.69648,-0.35561 -5.67053,-2.13364 -8.2877,-6.00579 -4.71884,-6.55896 -4.08436,-12.13014 -4.87745,-17.66178 -0.71378,-5.49216 -2.41888,-11.53746 0.75345,-15.88376 3.1723,-3.87217 15.58401,-1.34341 23.23724,5.01799 9.99282,8.33701 5.31365,17.14814 4.40161,22.83784 -0.23792,2.09411 -7.21705,12.84134 -15.22715,11.6955 z" />
    <path
       style="fill:#2e2e2c;fill-opacity:1"
       id="j"
       d="m 160,525.87 48.2125,-29.1775 c 9.30125,16.49125 17.7625,30.44375 38.0575,30.44375 19.45375,0 31.71875,-7.60975 31.71875,-37.21 l 0,-201.3 59.20375,0 0,202.1375 c 0,61.32 -35.94375,89.23125 -88.385,89.23125 -47.36125,0 -74.8525,-24.52875 -88.8075,-54.13"
       inkscape:connector-curvature="0" />
    <path
       style="fill:#2e2e2c;fill-opacity:1"
       id="s"
       d="M 369.35,519.52625 417.55625,491.615 c 12.69,20.72375 29.1825,35.9475 58.36125,35.9475 24.53125,0 40.17375,-12.26475 40.17375,-29.18125 0,-20.29875 -16.06875,-27.48875 -43.135,-39.32625 l -14.7975,-6.3475 c -42.715,-18.18125 -71.05,-41.0175 -71.05,-89.2275 0,-44.40375 33.83125,-78.2375 86.695,-78.2375 37.6375,0 64.7025,13.11125 84.15375,47.36625 L 511.86125,362.21 c -10.15,-18.1825 -21.1425,-25.37125 -38.0575,-25.37125 -17.33875,0 -28.335,10.995 -28.335,25.37125 0,17.7625 10.99625,24.9525 36.3675,35.94875 l 14.8,6.3425 c 50.325,21.56875 78.66,43.5575 78.66,93.03375 0,53.2875 -41.86625,82.465 -98.11,82.465 -54.97625,0 -90.5,-26.2175 -107.83625,-60.47375"
       inkscape:connector-curvature="0" />
  </g>
</svg>
